<svg width="503" height="330" viewBox="0 0 503 330" fill="none" xmlns="http://www.w3.org/2000/svg">
<path d="M229.03 84.9108C254.057 73.5348 328.62 61.8218 350.516 83.7175C368.425 101.627 362.039 145.693 346.936 163.674C325.517 189.172 281.477 169.66 257.194 160.094C234.385 151.108 221.235 138.147 209.697 116.893C205.99 110.066 197.319 84.2769 184.397 89.4457C183.376 89.8543 182.676 179.653 181.772 187.064C179.293 207.388 167.683 254.148 180.101 273.465C186.807 283.896 220.054 278.457 229.507 278.238C268.04 277.349 302.226 267.437 334.525 246.733C342.87 241.383 354.789 253.022 356.96 261.054C363.64 285.768 338.512 300.527 320.204 310.698C250.147 349.619 250.42 236.69 266.741 198.998C273.41 183.595 282.414 179.427 297.768 179.427C305.705 179.427 314.953 182.09 314.953 175.13" stroke="#802727" stroke-width="3" stroke-linecap="round"/>
<path d="M254.807 119.28C257.57 127.571 268.368 131.34 271.991 140.761C280.122 161.901 282.789 185.763 278.197 208.068C263.589 279.02 61.9661 143.365 39.521 126.918C26.4175 117.316 -3.11461 98.8019 2.76489 76.7957C9.12625 52.9861 40.4903 36.414 59.8085 26.6738C82.6477 15.1582 124.63 -4.6784 152.653 4.23823C179.209 12.6876 168.883 78.5199 168.883 98.0379C168.883 116.275 172.458 131.655 155.995 141.716C139.043 152.075 221.182 153.649 228.075 153.649C272.219 153.649 220.437 194.113 220.437 211.648C220.437 232.027 248.443 183.609 249.079 182.768C275.181 148.233 289.569 108.47 313.998 73.9316C319.256 66.4982 345.898 97.2549 348.368 106.392C353.941 127.014 351.814 162.578 346.936 183.484C339.276 216.312 325.217 226.959 304.69 252.223C290.379 269.836 266.573 268.874 246.214 260.099C233.609 254.665 194.948 247.437 208.265 244.108C219.743 241.238 220.437 248.891 220.437 258.667C220.437 280.702 206.826 315.893 239.77 320.961C322.861 333.745 370.234 240.274 383.214 174.653C388.168 149.61 403.066 120.353 391.329 95.4125C388.575 89.5596 403.041 100.436 405.173 101.857C418.447 110.706 418.286 108.512 400.876 110.688" stroke="#114B4B" stroke-width="3" stroke-linecap="round"/>
<path d="M220.437 46.2453C232.53 46.2453 244.623 46.2453 256.716 46.2453C284.496 46.2453 263.158 88.3404 253.852 98.754C236.068 118.655 208.376 135.384 187.023 151.74C167.541 166.662 157.62 135.48 154.563 119.758C145.113 71.1567 185.444 25.5295 233.326 35.5049C265.237 42.153 278.839 101.797 279.868 129.066C281.119 162.232 268.159 172.19 235.235 169.879C192.113 166.853 158.84 127.031 137.378 93.0258C107.632 45.8958 172.435 48.6227 204.207 47.2C249.73 45.1617 302.35 39.8699 347.413 48.6321C359.946 51.0692 360.433 62.6991 357.437 73.9317C352.533 92.3226 289.895 125.91 311.134 82.0467C324.838 53.7456 367.469 9.18411 399.922 3.28364C421.203 -0.585699 396.945 33.2789 393.239 37.653C363.032 73.3072 296.112 109.622 289.415 159.855C288.24 168.665 289.383 178.172 293.472 186.109C303.264 205.117 301.131 161.412 300.155 156.991C287.449 99.4409 186.751 136.465 146.209 136.465C122.553 136.465 125.922 138.296 125.922 163.913C125.922 196.322 118.563 239.466 136.423 268.691C140.963 276.121 151.29 277.186 158.859 280.148C181.127 288.861 207.227 297.471 224.734 314.517C241.711 331.048 247.21 332.044 273.662 321.677C296.995 312.533 346.908 292.326 353.38 263.202C356.784 247.884 359.4 207.627 349.322 195.179C344.244 188.905 340.372 225.193 340.73 230.026C341.277 237.412 463.634 227.122 473.911 226.684" stroke="#32114B" stroke-width="3" stroke-linecap="round"/>
<path d="M254.807 11.876C220.456 71.1665 178.401 125.058 143.345 183.484C129.703 206.221 206.623 178.484 220.437 180.859C251.619 186.218 285.42 234.514 272.469 265.35C263.511 286.679 237.142 313.8 211.368 307.357C175.928 298.497 161.977 246.205 163.155 215.228C163.947 194.412 171.18 130.226 198.957 124.054C231.656 116.787 294.662 119.781 287.267 164.151C275.342 235.7 228.259 238.854 179.863 193.747C165.114 180.001 131.501 154.556 143.822 131.453C163.072 95.3589 201.491 91.5534 238.577 87.2976C258.902 84.9652 342.737 83.0686 322.829 126.202C311.65 150.424 279.308 146.534 259.103 140.761" stroke="#A73232" stroke-width="3" stroke-linecap="round"/>
<path d="M87.2562 37.6528C115.186 46.7726 141.722 60.3977 168.167 72.9769C202.479 89.2983 253.367 105.295 278.674 136.226C289.966 150.026 297.089 175.863 286.551 192.076C252.238 244.865 208.592 118.574 236.906 88.7295C257.452 67.0732 299.209 78.6567 321.636 91.1163C350.439 107.118 365.638 121.937 361.256 156.991C356.172 197.663 296.109 222.388 259.103 222.388" stroke="#1B6133" stroke-width="3" stroke-linecap="round"/>
<path d="M183.021 98.4532C204.186 116.796 218.174 141.918 238.394 161.464C241.465 164.433 281.444 193.399 278.969 199.174C276.148 205.756 247.903 200.069 245.077 199.652C187.256 191.115 135.04 161.756 90.8921 124.23C66.8754 103.816 -0.947332 46.8288 60.5802 31.8626C124.278 16.3685 164.431 63.8756 176.099 123.514C186.439 176.362 149.916 145.276 141.969 113.251C117.912 16.3159 255.938 10.9876 320.976 23.0316C382.918 34.5025 299.902 113.419 280.639 126.617C267.557 135.581 184.282 173.088 187.556 192.73C189.426 203.949 249.188 205.857 260.352 205.857C292.274 205.857 308.678 185.797 335.774 173.875C361.103 162.73 371.426 174.272 365.847 202.516C362.88 217.533 352.028 237.499 354.868 253.115C356.69 263.139 400.192 254.462 405.944 253.115C462.577 239.861 394.909 126.903 383.27 98.4532C378.44 86.6464 373.901 29.516 388.521 22.5542C406.128 14.1701 446.486 45.8728 460.363 53.5821C471.061 59.5255 504.929 71.4134 508.575 86.5194C513.37 106.384 479.066 111.342 466.568 111.342" stroke="#82A732" stroke-width="3" stroke-linecap="round"/>
</svg>
